
<svg width="14" height="14" viewBox="0 0 14 14" fill="none" xmlns="http://www.w3.org/2000/svg">
<path d="M0.319298 0.319298C0.745015 -0.106415 1.43527 -0.106433 1.86101 0.319298L7.00001 5.4583L12.139 0.319298C12.5647 -0.106429 13.255 -0.106436 13.6807 0.319298C14.1064 0.745015 14.1064 1.43526 13.6807 1.86099L8.5417 6.99999L13.6807 12.139C14.1064 12.5647 14.1064 13.255 13.6807 13.6807C13.255 14.1064 12.5647 14.1064 12.139 13.6807L7 8.54168L1.861 13.6807C1.43527 14.1064 0.745019 14.1064 0.319302 13.6807C-0.106437 13.255 -0.10643 12.5647 0.319302 12.139L5.45831 6.99999L0.319302 1.86099C-0.106426 1.43526 -0.106441 0.74504 0.319298 0.319298Z" fill="#000"/>
</svg>
